<svg xmlns="http://www.w3.org/2000/svg" viewBox="0 0 330 280"><defs><filter id="glow" x="-60%" y="-60%" width="220%" height="220%"><feGaussianBlur stdDeviation="4" result="b"/><feMerge><feMergeNode in="b"/><feMergeNode in="SourceGraphic"/></feMerge></filter></defs><g filter="url(#glow)"><g stroke="#00a7ff" stroke-width="7" fill="none" stroke-linecap="round" stroke-linejoin="round">
<rect x="80" y="72" width="66" height="118" rx="32" transform="rotate(-18 113 131)"/>
<path d="M86 172 C108 202 154 192 168 156"/><path d="M150 190 l16 46"/><path d="M126 244 l78 -28"/>
<path d="M178 82 q24 -20 48 0"/><path d="M190 116 q32 -22 66 3"/><path d="M194 154 q28 -14 56 8"/>
<path d="M228 60 l8 18 l20 2 l-15 13 l5 20 l-18 -10 l-18 10 l5 -20 l-15 -13 l20 -2 z"/>
</g></g></svg>